<?xml version="1.0" encoding="utf-8"?>
<!-- Generator: Adobe Illustrator 21.0.2, SVG Export Plug-In . SVG Version: 6.00 Build 0)  -->
<svg version="1.1" id="Capa_1" xmlns="http://www.w3.org/2000/svg" xmlns:xlink="http://www.w3.org/1999/xlink" x="0px" y="0px"
	 viewBox="0 0 1000 1000" style="enable-background:new 0 0 1000 1000;" xml:space="preserve">
<style type="text/css">
	.st0{fill:#FFFFFF;}
</style>
<g>
	<path class="st0" d="M991.2,318.5c-11.5-11.5-30.1-11.5-41.6,0l-76.3,76.3l-13.9-13.9l118-118c11.5-11.5,11.5-30.1,0-41.6
		c-11.5-11.5-30.1-11.5-41.6,0l-118,118l-13.9-13.9l131.9-131.9c11.5-11.5,11.5-30.1,0-41.6c-11.5-11.5-30.1-11.5-41.6,0
		L762.2,283.8l-13.9-13.9l97.2-97.2c11.5-11.5,11.5-30.1,0-41.6c-11.5-11.5-30.1-11.5-41.6,0l-97.2,97.2l-70.5,70.5l-21-88.3
		c-3.3-14-15.8-23.8-30.2-23.8c-17.1,0-31,13.9-31,31v146.6c0,11.1,1.1,22.2,3.3,33.1l10.6,53l107.8,107.8
		c32.5,32.5,85.1,32.5,117.6,0l121.7-121.7l76.3-76.3C1002.7,348.6,1002.7,330,991.2,318.5z"/>
	<polygon class="st0" points="301.4,719.2 117.9,535.7 0.1,653.5 298.1,951.5 415.9,833.7 666.2,583.4 551.7,468.9 	"/>
</g>
</svg>
