<?xml version="1.0" encoding="utf-8"?>
<!-- Generator: Adobe Illustrator 21.0.2, SVG Export Plug-In . SVG Version: 6.00 Build 0)  -->
<svg version="1.1" id="Capa_1" xmlns="http://www.w3.org/2000/svg" xmlns:xlink="http://www.w3.org/1999/xlink" x="0px" y="0px"
	 viewBox="0 0 1000 1000" style="enable-background:new 0 0 1000 1000;" xml:space="preserve">
<style type="text/css">
	.st0{fill:#FFFFFF;}
</style>
<path class="st0" d="M620.8,144.6v144.6h-26.3V65.7c0-21.8-17.7-39.4-39.4-39.4h0c-21.8,0-39.4,17.7-39.4,39.4v223.5h-26.3V39.4
	c0-21.8-17.7-39.4-39.4-39.4h0c-21.8,0-39.4,17.7-39.4,39.4v249.8h-26.3V105.2c0-21.8-17.7-39.4-39.4-39.4h0
	c-21.8,0-39.4,17.7-39.4,39.4v184.1v133.5l-103.5-63.7c-16.4-10.1-37.6-7.6-51.2,6l0,0c-16.2,16.2-16.2,42.5,0,58.8l138.9,138.9
	c10.5,10.5,22.1,20,34.5,28.2l60.3,40.2h204.2c61.5,0,111.4-49.9,111.4-111.4V289.3V144.6c0-21.8-17.7-39.4-39.4-39.4h0
	C638.5,105.2,620.8,122.8,620.8,144.6z"/>
<rect x="386.4" y="664.1" class="st0" width="216.9" height="335.9"/>
</svg>
