<?xml version="1.0" encoding="utf-8"?>
<!-- Generator: Adobe Illustrator 21.0.2, SVG Export Plug-In . SVG Version: 6.00 Build 0)  -->
<svg version="1.1" id="Capa_1" xmlns="http://www.w3.org/2000/svg" xmlns:xlink="http://www.w3.org/1999/xlink" x="0px" y="0px"
	 viewBox="0 0 893.2 171.8" style="enable-background:new 0 0 893.2 171.8;" xml:space="preserve">
<style type="text/css">
	.st0{fill:#FFFFFF;}
</style>
<g>
	<path class="st0" d="M94.9,47.3l-5.7-14H76.5l-5.9,14H60.3L55,59.9h-7.9L0,171.6h46.9l9.1-23.1h52.4l9.7,23.1h36.4L102,47.3H94.9z
		 M78.1,35.6h9.5l4.9,11.7H73.2L78.1,35.6z M72.2,49.6h21.4l33.6,81.7h-10.9l-6.1-15H97.7L74.5,59.9h-6.9L72.2,49.6z M113.7,131.3
		h-9.9l-5.1-12.7h9.9L113.7,131.3z M95.1,116.3H43.9l22.7-54H73L95.1,116.3z M61.9,49.6h7.7l-4.4,10.3h-7.7L61.9,49.6z M56.6,62.3
		h7.5l-22.7,54h-6.9L56.6,62.3z M45.3,169.3H3.6l45.1-107H54l-23.1,56.4h9.5l-12.7,29.9h25.9L45.3,169.3z M54.4,146.1H31.2
		l11.7-27.5h53.2l5.3,12.7H60.3L54.4,146.1z M56.9,146.1l4.9-12.5h40.3l5.1,12.5H56.9z M104.8,133.7h9.9l5.1,12.5h-9.9L104.8,133.7z
		 M119.4,169.3l-8.5-20.8h12.5l-6.1-14.8h13.2l-34.6-84h4.5l50.6,119.6H119.4z"/>
	<path class="st0" d="M138.5,41.1h-10.9v12.5h10.9v6.5h41.1v102h9.1v9.3h23.9V59.7h44.3V33H138.5V41.1z M138.5,51.2h-8.7v-7.7h8.7
		V51.2z M188.7,159.8h-7.1V60.1h7.1V159.8z M188.7,57.7h-7.1v-4.2h7.1V57.7z M140.8,35.4h113.7v21.9h-44.3v111.7h-19.4v-6.9h8.7
		V58.9c0-0.7-0.2-1-0.6-1.1c-0.4-0.1-0.8-0.1-1.2-0.1h-6.9v-6.5h-9.3V41.1h-40.7V35.4z M190.9,159.8V60.1h6.5v99.7H190.9z
		 M140.8,43.5h38.8v7.7h-38.8V43.5z M140.8,53.6h38.8v4.2h-38.8V53.6z"/>
	<path class="st0" d="M389.6,102.4c0,10.5-2.6,20.4-7.9,29.5c-4.2,7.1-9.6,13.1-16.2,17.9c-6.6,4.8-13.9,8.1-21.9,9.8
		c-3.4,0.7-7.3,1.1-11.5,1.4V138c4.7-0.1,9.2-1.2,13.3-3.1c4.2-1.9,7.8-4.4,10.9-7.6c3.1-3.2,5.5-6.9,7.3-11.2
		c1.8-4.3,2.7-8.8,2.7-13.5c0-4.9-0.9-9.5-2.8-13.7c-1.8-4.3-4.4-8-7.6-11.2c-3.2-3.2-7-5.7-11.3-7.5c-4.3-1.8-8.9-2.8-13.7-2.8
		h-1.2v68.2c-4.4-0.1-8.5-1.1-12.4-2.9c-3.9-1.8-7.3-4.2-10.2-7.1c-2.9-3-5.2-6.4-6.8-10.4c-1.7-4-2.5-8.2-2.5-12.7
		c0-6.5,1.8-12.4,5.3-17.8l0.6-1l-5.3-3.6c3.8-5.1,8.5-9.2,14.1-12.1c5.6-2.9,11.6-4.4,18.1-4.4c3.6,0,7.1,0.4,10.5,1.3
		c3.4,0.9,6.7,2.2,9.7,4.1l1,0.6l9.1-12.7c2.8,1.8,5.5,4.2,8.3,6.9c2.9,2.9,5.5,6.2,7.7,9.9l0.6,0.8l6.1-3l-0.6-1.2
		c-2.4-4-5.3-7.6-8.7-11.1l-0.4-0.4c-2.6-2.6-5.7-5.1-9.1-7.5l2.8-3.8c0.9-1.3,1.4-2.1,1.6-2.3c0.1-0.2,0.3-0.4,0.4-0.5
		c-0.3-0.3-0.9-0.7-1.8-1.2c-0.9-0.5-1.9-1.1-3.1-1.8c-1.1-0.7-2.3-1.3-3.5-1.9c-1.2-0.6-2.2-1.1-3.2-1.5
		c-8.8-3.7-17.9-5.5-27.1-5.5c-6.2,0-12.1,0.8-17.8,2.4l-1.2,0.2l2.2,7.7c-10,3-18.9,8.2-26.5,15.6c-2.9,3-5.4,6.1-7.5,9.3l-6.7-4.4
		l-0.8,1c-7.3,11.5-10.9,23.9-10.9,37.4c0,9.5,1.8,18.5,5.4,26.9c3.6,8.4,8.6,15.8,14.8,22c6.3,6.3,13.6,11.2,22,14.8
		c8.4,3.6,17.4,5.4,26.9,5.4c9.6,0,18.6-1.8,26.9-5.3c8.3-3.6,15.6-8.5,21.9-14.8c6.3-6.3,11.3-13.6,14.9-21.9
		c3.6-8.3,5.4-17.3,5.4-26.9v-1l-10.7-0.2V102.4z M332.1,69.6c4.3,0.3,8.5,1.3,12.4,3.1c3.9,1.8,7.3,4.2,10.2,7.1
		c2.9,3,5.2,6.4,6.8,10.3c1.6,3.9,2.5,8.1,2.5,12.6c0,4.5-0.8,8.7-2.5,12.7c-1.7,4-3.9,7.4-6.8,10.4c-2.9,3-6.3,5.3-10.2,7.1
		c-3.9,1.8-8,2.7-12.4,2.9V69.6z M360.4,54c-5.9-3.7-12.6-6.1-20-7.3l-0.6-0.2c-1.1-0.1-2.5-0.3-4.4-0.4c-1.8-0.1-3.8-0.2-5.9-0.2
		c-1.2,0-2.3,0-3.4,0.1c-1.1,0.1-2,0.2-3,0.3c-0.9,0.1-1.8,0.3-2.7,0.4c-0.9,0.1-1.7,0.3-2.7,0.6l-0.6-2c2.2-0.7,4.5-1.1,6.8-1.3
		c2.3-0.2,4.6-0.3,6.8-0.3c11.1,0,21.3,2.8,30.7,8.5L360.4,54z M372,60.5l0.4,0.2c1.4,1.6,2.9,3.2,4.2,4.8c1.4,1.6,2.6,3.4,3.7,5.2
		l-2,1c-1.8-3.2-4.4-6.3-7.5-9.5c-2.5-2.5-5.3-4.8-8.5-6.9l1.2-1.8C366.7,55.7,369.5,58,372,60.5z M323.1,36.1
		c2.7-0.3,5.4-0.5,8-0.5c12.9,0,24.6,3.4,35.2,10.1c-0.3,0.5-0.7,1.2-1.3,2c-0.6,0.8-1.3,1.7-2.1,2.8c-9.8-6.1-20.4-9.1-32-9.1
		c-4.6,0-9.4,0.5-14.2,1.6l-1.6-5.3C317.7,36.9,320.4,36.4,323.1,36.1z M285.4,65.2c1.2-1.5,2.5-3,4-4.4
		c7.2-7.2,15.8-12.2,25.5-14.8l1.4,4.4l1-0.4c2.2-0.7,4.4-1.1,6.3-1.2c0.8-0.3,1.7-0.4,2.7-0.4c1,0,2.1,0,3.3,0c2,0,3.9,0.1,5.7,0.2
		c1.8,0.1,3.2,0.3,4.2,0.4h0.6c6.7,1.2,13.1,3.6,19,7.1l-7.7,10.9c-6.3-3.6-13.2-5.3-20.6-5.3c-6.9,0-13.3,1.6-19.3,4.6
		c-6,3.1-11,7.4-14.9,13l-14.4-9.3C283.1,68.2,284.3,66.7,285.4,65.2z M280.9,71.8l14.4,9.3c-4.4,7-6.5,14.4-6.5,22.3
		c0,5.4,1,10.5,2.9,15.4c1.9,4.9,4.7,9.2,8.4,13.1L288.8,143c-4.6-4.7-8.3-10.1-11-15.9c-2.7-5.9-4.4-12-5-18.3
		c-0.7-6.3-0.3-12.7,1-19C275.1,83.5,277.5,77.5,280.9,71.8z M392,103.6h5.9c-0.1,9.1-2,17.6-5.5,25.6c-3.6,8-8.4,14.9-14.4,20.9
		c-6.1,5.9-13.1,10.6-21.2,14c-8,3.4-16.6,5.1-25.7,5.1c-9.2,0-17.9-1.7-26-5.2c-8.1-3.5-15.2-8.3-21.3-14.3
		c-6.1-6.1-10.8-13.1-14.3-21.3c-3.5-8.1-5.2-16.8-5.2-26c0-12.8,3.3-24.5,9.9-35l4.7,3c-3.7,5.9-6.2,12.3-7.6,19
		c-1.4,6.7-1.7,13.4-0.9,20c0.8,6.6,2.6,13,5.5,19.3c2.9,6.3,6.9,11.8,11.9,16.7l0.8-0.8l-0.6,1l0.8,0.8l14.6-14.2l-0.8-1
		c-3.8-3.7-6.7-7.9-8.6-12.7c-1.9-4.7-2.9-9.8-2.9-15c0-7.5,2-14.6,6.1-21.2l3.4,2.2c-3.4,5.7-5.1,11.7-5.1,18.2
		c0,4.7,0.9,9.3,2.7,13.5c1.8,4.3,4.2,8,7.3,11.2c3.1,3.2,6.7,5.7,10.9,7.6c4.2,1.9,8.6,2.9,13.3,3.1v25.1h1.4
		c2.2,0,4.4-0.1,6.5-0.3c2.1-0.2,4.2-0.6,6.3-1.1c8.3-1.8,15.9-5.2,22.8-10.2c6.9-4.9,12.6-11.1,16.9-18.5c2.6-4.5,4.6-9.2,6-14.1
		C391.1,114,391.9,108.9,392,103.6z"/>
	<path class="st0" d="M539.7,70.4l22.3-36.6h-31.4l-33.4,54l-33.6-54.4h-25.5l47.7,77.5l11.5-18.8l7.3,12.1L537.4,51v18.8L492.7,143
		L428.4,36.8v19.8l-9.9-16.4v131.5h30.8v-5.9h85.4V107l2.6-4v68.6h26.1V56.2l-23.7,38.6V70.4z M485.8,106.4l-43.5-70.6h20L495.8,90
		L485.8,106.4z M447,169.3h-26.1V48.6l7.5,12.5v104.6H447V169.3z M447,163.5h-16.2V64.9L447,92V163.5z M537.4,98.5l-4.7,7.9v57.1
		h-83.2V91.4l-18.6-31V45.1l61.9,102.4l44.7-73.4V98.5z M504.5,99.9l-5.9-9.9l33.2-54h26.1l-18.2,29.9V42.9L504.5,99.9z M561.1,64.5
		v104.8h-21.4v-70L561.1,64.5z"/>
	<path class="st0" d="M591.1,46.5H585v9.7h6.1v16.4H585v90.6h6.1v8.7h26.1v-8.7h7.3V54h-31v-5.1h31V33.4h-33.4V46.5z M591.1,160.8
		h-3.8V74.9h3.8V160.8z M591.1,54h-3.8v-5.1h3.8V54z M593.5,35.8h28.7v10.7h-28.7V35.8z M593.5,56.2h28.7v104.6h-4.9V72.6h-23.7
		V56.2z M593.5,74.9h21.4v85.8h-21.4V74.9z M593.5,163.1h21.4v6.3h-21.4V163.1z"/>
	<path class="st0" d="M760.8,129.8c-2.6,5-5.9,9.6-9.7,13.6l-12.6-12.7l-1,0.8c-4,4-8.4,6.9-13.2,8.9c-4.7,2.1-10,3.2-15.6,3.2
		c-4.5,0-8.8-0.7-13-2.1c-4.2-1.4-7.9-3.3-11.3-5.8c-3.4-2.5-6.3-5.5-8.9-9c-2.6-3.5-4.5-7.3-5.8-11.6c-1.3-3.8-2-8-2-12.5
		c0-4.9,0.9-9.6,2.6-14.1c1.7-4.5,4.2-8.7,7.3-12.4c3.8-4.6,8.4-8.1,13.8-10.6c5.4-2.4,11.1-3.7,17.2-3.7c11.2,0,20.8,4,28.7,11.9
		l0.8,0.8L751,61.6c3.8,3.9,7,8.4,9.7,13.4c0.6-0.4,1.3-0.7,2-1c-2.8-5.1-6.2-9.8-10.2-13.9l5.7-5.7l-0.8-0.8
		c-6.6-6.7-14.1-11.8-22.4-15.2c-8.4-3.4-17.2-5.1-26.4-5.1c-10.3,0-20,2.1-29.2,6.3c-9.2,4.2-17,10.3-23.6,18.2l-0.8,0.8l6.4,5.5
		c-3.7,4.5-6.7,9.4-9.1,14.9c-3.2,7.4-4.8,15.3-4.8,23.7c0,6.1,0.9,11.9,2.5,17.5l-7.7,2.5l0.2,1.2c2.4,7.1,5.7,13.6,10,19.6
		c4.3,5.9,9.3,11,15.1,15.1c5.8,4.2,12.2,7.4,19.2,9.7c7,2.3,14.2,3.5,21.8,3.5c9,0,17.8-1.7,26.5-5.1c8.6-3.7,16-8.7,22.3-15
		l0.8-0.8l-5.5-5.6c4.1-4.2,7.5-9,10.3-14.4C762.4,130.3,761.7,130,760.8,129.8z M738.1,71.2c-4-3.8-8.5-6.7-13.5-8.7
		c-5.1-2-10.4-3-15.9-3c-6.3,0-12.4,1.3-18.1,4c-5.7,2.6-10.6,6.3-14.7,11.1c-3.4,4-6,8.3-7.8,13.1c-1.8,4.8-2.7,9.8-2.7,14.9
		c0,2.2,0.2,4.4,0.5,6.6c0.3,2.2,0.8,4.3,1.5,6.4c1.4,4.5,3.5,8.6,6.2,12.3c2.7,3.7,5.9,6.9,9.5,9.6c3.6,2.7,7.6,4.8,12,6.2
		c4.4,1.5,8.9,2.2,13.6,2.2c5.5,0,11.1-1.1,16.6-3.4c4.9-2,9.2-4.9,13.1-8.7l11.2,11.2c-5.1,4.9-11,8.9-17.8,11.8
		c-7.2,3.1-14.8,4.7-22.8,4.7c-8.2,0-15.8-1.6-22.9-4.7c-7.1-3.1-13.3-7.3-18.7-12.7c-5.3-5.3-9.6-11.6-12.7-18.7
		c-0.6-1.3-1-2.6-1.5-3.9l12.3-4l-0.4-1.2c-1.5-4.6-2.2-9.2-2.2-13.8c0-5.5,1-10.8,2.9-15.8c1.9-5,4.6-9.6,8.2-13.8l0.8-1l-9.9-8.4
		c0.8-0.9,1.6-1.8,2.5-2.7c5.3-5.3,11.6-9.5,18.7-12.6c7.1-3.1,14.8-4.7,22.9-4.7c8,0,15.7,1.6,22.8,4.7c6.8,2.9,12.7,6.8,17.7,11.7
		L738.1,71.2z M658.4,58.3c6.3-7.2,13.8-12.9,22.5-16.8c8.7-4,17.9-5.9,27.7-5.9c8.7,0,17,1.6,25,4.7c8,3.2,15.1,7.8,21.5,14
		l-4.2,4.2c-5.3-5.1-11.4-9.1-18.3-12.2c-7.4-3.2-15.3-4.8-23.7-4.8c-8.4,0-16.4,1.6-23.8,4.8c-7.5,3.2-13.9,7.6-19.5,13.1
		c-0.9,0.9-1.7,1.8-2.5,2.7L658.4,58.3z M649.9,102.5c0-8.1,1.5-15.7,4.6-22.9c2.3-5.3,5.1-10,8.6-14.2l8.1,6.9
		c-3.4,4.2-6.1,8.9-8,14.1c-1.9,5.2-2.9,10.6-2.9,16.1c0,2.2,0.2,4.5,0.5,6.7c0.3,2.2,0.8,4.5,1.5,6.7l-10,3.3
		C650.7,114,649.9,108.4,649.9,102.5z M755.1,150.7c-3,2.9-6.3,5.5-9.8,7.8c-3.5,2.3-7.2,4.2-11.2,5.8c-8.3,3.4-16.8,5.1-25.5,5.1
		c-7.3,0-14.2-1.1-20.9-3.3c-6.7-2.2-12.8-5.2-18.3-9.2c-5.5-4-10.4-8.7-14.5-14.3c-4.2-5.6-7.4-11.8-9.8-18.5l5.6-1.8
		c0.5,1.4,1,2.7,1.6,4.1c3.2,7.5,7.6,13.9,13.1,19.5c5.5,5.5,12,9.9,19.5,13.2c7.4,3.2,15.4,4.8,23.8,4.8c8.4,0,16.3-1.6,23.7-4.8
		c7-3.1,13.2-7.2,18.6-12.4L755.1,150.7z"/>
	<path class="st0" d="M780.3,8.2H777V0h-7.1v41.1h2.9V44h28.6v-8h-21.2V8.2z M777,8.9h2.5v27.1H777V8.9z M779.5,36.8v3.6h-5.9V8.9
		h2.7v27.8H779.5z M772.8,40.3h-2.1V0.7h5.6v7.4h-3.5V40.3z M800.8,36.8v6.5h-27.2v-2.1h6.7v-4.3H800.8z"/>
	<path class="st0" d="M834.5,4.5L832.7,0h-4l-1.9,4.5h-3.3l-1.7,4h-2.5l-15,35.5h14.9l2.9-7.4h16.7l3.1,7.4h11.6L836.8,4.5H834.5z
		 M829.1,0.8h3l1.6,3.7h-6.2L829.1,0.8z M827.3,5.2h6.8l10.7,26h-3.5l-2-4.8h-4L828,8.5h-2.2L827.3,5.2z M840.5,31.2h-3.1l-1.6-4
		h3.1L840.5,31.2z M834.6,26.4h-16.3l7.2-17.2h2L834.6,26.4z M824,5.2h2.5l-1.4,3.3h-2.5L824,5.2z M822.3,9.2h2.4l-7.2,17.2h-2.2
		L822.3,9.2z M818.7,43.3h-13.3l14.3-34h1.7l-7.4,17.9h3l-4,9.5h8.2L818.7,43.3z M821.6,35.9h-7.4l3.7-8.7h16.9l1.7,4h-13.1
		L821.6,35.9z M822.4,35.9l1.6-4h12.8l1.6,4H822.4z M837.6,32h3.1l1.6,4h-3.1L837.6,32z M842.3,43.3l-2.7-6.6h4l-1.9-4.7h4.2
		l-11-26.7h1.4l16.1,38.1H842.3z"/>
	<path class="st0" d="M892.9,28.4c-0.2-1-0.6-1.9-1.1-2.7c-1-1.8-2.4-3.1-4.2-4c-1.8-0.9-3.8-1.4-6-1.4h-4.7v5.2l2.6,0.1
		c1.7,0,3.2,0.3,4.3,0.9c1.2,0.6,1.9,1.5,2.4,2.6h-16.9v-8.7h-7.5V10.1h13.2c1.6,0,2.7,0.5,3.4,1.4c0.4,0.6,0.6,1.2,0.6,1.8
		c0,0.6-0.1,1-0.1,1.1l-0.2,0.5h12.4l0.1-0.3c0.9-3.5,0.3-6.6-1.8-9.4c-1.2-1.6-2.9-2.9-4.9-3.8C882.2,0.5,880,0,877.7,0
		c-0.2,0-0.4,0-0.6,0s-0.3,0-0.5,0.1h-20.4v21h4.7v23h8.3v-5.6h5.1c1.9,0,3.6-0.1,4.9-0.3c1.3-0.2,2.4-0.4,3.3-0.8
		c0.9-0.3,1.6-0.8,2.1-1.3c0.5-0.5,1-1.1,1.4-1.9c0.9-1.4,1.3-2.9,1.1-4.5h1.8c0.5,2,0.2,3.8-0.8,5.5c-0.8,1.4-2.2,2.6-4.1,3.4
		s-4.1,1.2-6.7,1.2h-0.4v3.3h0.4c3.4,0,6.4-0.6,9-1.7c2.6-1.1,4.5-2.7,5.6-4.7c0.5-0.8,0.8-1.7,1-2.6c0.2-0.9,0.3-1.9,0.3-2.9
		C893.2,30.4,893.1,29.4,892.9,28.4z M860.9,20.3h-4V0.8h19.7c0.2,0,0.4-0.1,0.5-0.1c0.1,0,0.3,0,0.5,0c2.2,0,4.3,0.4,6.2,1.3
		c1.9,0.9,3.5,2.1,4.7,3.7c1.9,2.4,2.5,5.2,1.7,8.4h-10.8c0.1-0.4,0.1-0.8,0-1.4c-0.1-0.6-0.3-1.1-0.7-1.7c-0.8-1.1-2.2-1.7-4-1.7
		h-13.9V20.3z M868.5,37.7h-3.3v-7.9h3.3V37.7z M868.5,29.1h-4.1v9.4h4.1v4.8h-6.8V21.1h6.8V29.1z M886.2,31.9
		c-0.2,0.7-0.5,1.4-0.9,2c-0.4,0.6-0.8,1.2-1.3,1.7c-0.5,0.5-1.2,0.9-2,1.2c-0.8,0.3-1.8,0.5-3.1,0.7c-1.2,0.1-2.8,0.2-4.6,0.2h-5.1
		v-7.9h17.1C886.4,30.5,886.4,31.2,886.2,31.9z M891.2,36.4c-1.1,1.8-2.8,3.3-5.2,4.3c-2.4,1-5.2,1.6-8.4,1.7v-1.9
		c2.6,0,4.9-0.5,6.8-1.4c1.9-0.9,3.4-2,4.2-3.5c1.1-2,1.4-4.1,0.8-6.3l-0.1-0.3h-2.6c-0.4-1.3-1.2-2.4-2.5-3.1
		c-1.3-0.8-2.9-1.1-4.9-1.1h-1.8v-3.7h4c2.1,0,4,0.4,5.7,1.3c1.6,0.9,2.9,2.1,3.9,3.7c0.9,1.6,1.4,3.3,1.4,5.3S892.1,35,891.2,36.4z
		"/>
</g>
</svg>
