<?xml version="1.0" encoding="utf-8"?>
<!-- Generator: Adobe Illustrator 23.0.1, SVG Export Plug-In . SVG Version: 6.00 Build 0)  -->
<svg version="1.1" id="Layer_1" xmlns="http://www.w3.org/2000/svg" xmlns:xlink="http://www.w3.org/1999/xlink" x="0px" y="0px"
	 viewBox="0 0 283.46 142.78" style="enable-background:new 0 0 283.46 142.78;" xml:space="preserve">
<style type="text/css">
	.st0{fill:#FFFFFF;}
</style>
<g>
	<path class="st0" d="M237.98,107.07c-21.17-20.9-52.72-37.81-94.52-37.81c-41.76,0-73.38,16.9-94.53,37.81
		c-10.99,10.8-9.28,20.1,6.97,14.81c13.89-4.49,45.14-14.16,87.53-14.17c42.7,0,73.72,9.68,87.58,14.17
		C247.3,127.17,249,117.87,237.98,107.07"/>
	<polygon class="st0" points="45.2,25.24 38.47,25.24 38.47,19.84 59.2,19.84 59.2,25.24 52.47,25.24 52.47,47.15 45.2,47.15 	"/>
	<polygon class="st0" points="67.03,19.84 86.27,19.84 86.27,25.02 74.31,25.02 74.31,30.64 85.61,30.64 85.61,35.81 74.31,35.81 
		74.31,41.99 86.7,41.99 86.7,47.15 67.03,47.15 	"/>
	<polygon class="st0" points="96.98,19.84 104.26,19.84 104.26,41.75 114.34,41.75 114.34,47.15 96.98,47.15 	"/>
	<polygon class="st0" points="120.8,19.84 140.05,19.84 140.05,25.02 128.07,25.02 128.07,30.64 139.38,30.64 139.38,35.81 
		128.07,35.81 128.07,41.99 140.48,41.99 140.48,47.15 120.8,47.15 	"/>
	<path class="st0" d="M169.74,46.52c-2.08,0.52-3.89,1.11-7.61,1.11c-6.74,0-15.19-3.67-15.19-14.01c0-9.49,6.68-14.24,15.15-14.24
		c2.88,0,5.08,0.66,7.61,1.41l-0.59,5.91c-2.35-1.29-3.86-1.91-6.62-1.91c-4.9,0-8.04,3.75-8.04,8.83c0,5.36,3.83,8.62,8.64,8.62
		c2.37,0,4.32-0.64,6.31-1.42L169.74,46.52z"/>
	<path class="st0" d="M188.49,19.38c8.99,0,13.69,5.37,13.69,14.12c0,8.68-4.77,14.13-13.69,14.13c-8.92,0-13.7-5.45-13.7-14.13
		C174.79,24.74,179.49,19.38,188.49,19.38 M188.49,42.23c4.41,0,6.18-4.23,6.18-8.73c0-4.73-1.76-8.72-6.18-8.72
		c-4.43,0-6.19,3.99-6.19,8.72C182.31,38.01,184.06,42.23,188.49,42.23"/>
	<polygon class="st0" points="210.25,19.84 221.15,19.84 226.75,38.28 226.83,38.28 232.5,19.84 243.43,19.84 243.43,47.15 
		236.41,47.15 236.52,25.52 236.45,25.52 229.49,47.15 223.46,47.15 217,25.52 216.93,25.52 217.09,47.15 210.25,47.15 	"/>
</g>
</svg>
