<?xml version="1.0" encoding="utf-8"?>
<!-- Generator: Adobe Illustrator 21.0.2, SVG Export Plug-In . SVG Version: 6.00 Build 0)  -->
<svg version="1.1" id="Capa_1" xmlns="http://www.w3.org/2000/svg" xmlns:xlink="http://www.w3.org/1999/xlink" x="0px" y="0px"
	 viewBox="0 0 300 300" style="enable-background:new 0 0 300 300;" xml:space="preserve">
<style type="text/css">
	.st0{fill:#FFFFFF;}
</style>
<g>
	<g>
		<path class="st0" d="M151.4,0C96.2-0.7,50.8,45.7,50,103.8C48.8,189.6,147.3,300,147.3,300S248.9,192.4,250,106.6
			C250.9,48.5,206.7,0.7,151.4,0z M149.3,244.6c-8.9,0-18.9-3.5-18.9-8.7h37.8C168.2,241.1,158.2,244.6,149.3,244.6z M178.3,229.2
			c0,1.5-1.7,2.5-3.8,2.5h-50.4c-2.1,0-3.8-1.2-3.8-2.5v-1.7c0-1.5,1.7-2.6,3.8-2.6h50.5c2.1,0,3.8,1.2,3.8,2.6v1.7H178.3z
			 M178.3,218.1c0,1.5-1.7,2.6-3.8,2.6h-50.4c-2.1,0-3.8-1.2-3.8-2.6v-1.7c0-1.5,1.7-2.6,3.8-2.6h50.5c2.1,0,3.8,1.2,3.8,2.6v1.7
			H178.3z M178.3,207c0,1.5-1.7,2.6-3.8,2.6h-50.4c-2.1,0-3.8-1.2-3.8-2.6v-1.7c0-1.5,1.7-2.6,3.8-2.6h50.5c2.1,0,3.8,1.2,3.8,2.6
			v1.7H178.3z M148.9,189.1c-44.5-0.6-80.1-36.9-79.5-81.2s37.2-79.5,81.7-78.9s80.1,36.9,79.5,81.1
			C230,154.3,193.3,189.7,148.9,189.1z"/>
		<g>
			<g>
				<g>
					<path class="st0" d="M149.8,39.1c-7.9,0-14.7,6.8-20.4,20.2c-5.6,13.5-8.3,29.8-8.3,48.8c0,19.1,2.9,35.4,8.3,48.8
						c5.7,13.5,12.5,20.3,20.4,20.3s14.7-6.8,20.3-20.3c5.6-13.5,8.4-29.7,8.4-48.8c0-19-2.9-35.3-8.4-48.8
						C164.6,45.7,157.8,39.1,149.8,39.1z M130.5,61.7c5.3-12.8,11.8-19.2,19.3-19.2c7.6,0,14,6.4,19.3,19.2c5.4,12.8,8,28.3,8,46.3
						c0,18.2-2.6,33.6-8,46.3c-5.3,12.9-11.7,19.2-19.3,19.2c-7.5,0-14-6.3-19.3-19.2c-5.4-12.8-8-28.2-8-46.3
						C122.6,89.9,125.1,74.4,130.5,61.7z"/>
					<path class="st0" d="M149.8,177.4c-8.1,0-15.1-6.9-20.8-20.6c-5.6-13.5-8.4-30-8.4-49c0-18.9,2.9-35.4,8.4-49
						c5.7-13.5,12.7-20.4,20.8-20.4s15.1,6.9,20.8,20.5c5.6,13.5,8.4,30,8.4,49s-2.9,35.5-8.4,49C165,170.6,158,177.4,149.8,177.4z
						 M149.8,39.6c-7.7,0-14.4,6.7-19.8,19.8c-5.5,13.5-8.3,29.8-8.3,48.6s2.9,35.2,8.3,48.6c5.5,13.2,12.2,20,19.8,20
						c7.7,0,14.4-6.7,19.8-20c5.6-13.4,8.4-29.8,8.4-48.6s-2.9-35.2-8.4-48.6C164.2,46.2,157.5,39.6,149.8,39.6z M149.8,174.1
						c-7.8,0-14.5-6.5-19.7-19.5c-5.4-12.7-8-28.4-8-46.6s2.7-33.8,8-46.6l0,0c5.4-13,12-19.5,19.7-19.5s14.4,6.5,19.7,19.5
						c5.3,12.8,8,28.4,8,46.6s-2.7,33.9-8,46.6C164.3,167.5,157.7,174.1,149.8,174.1z M149.8,43c-7.3,0-13.6,6.3-18.8,18.9l0,0
						c-5.3,12.6-7.9,28.1-7.9,46.1s2.6,33.6,7.9,46.1c5.2,12.6,11.5,18.9,18.8,18.9c7.3,0,13.6-6.3,18.8-18.9
						c5.3-12.6,7.9-28.2,7.9-46.1c0-18.1-2.6-33.6-7.9-46.1C163.5,49.3,157.1,43,149.8,43z"/>
				</g>
			</g>
			<g>
				<g>
					<path class="st0" d="M200.6,59.2c-5.6-5.6-15.2-5.6-28.7-0.1c-13.5,5.6-26.9,15.1-40.4,28.5c-13.5,13.5-23,27-28.6,40.4
						c-5.6,13.5-5.6,23,0,28.7c5.7,5.6,15.2,5.6,28.6,0c13.5-5.6,27-15.1,40.5-28.6c13.5-13.5,23-26.9,28.6-40.4
						C206.2,74.4,206.2,64.9,200.6,59.2z M171,61.7c12.9-5.3,21.9-5.2,27.2,0.1c5.4,5.3,5.4,14.4,0.1,27.2s-14.4,25.7-27.1,38.4
						c-12.9,12.9-25.7,21.9-38.4,27.1s-21.9,5.3-27.2-0.1c-5.3-5.3-5.4-14.4-0.1-27.2c5.3-12.8,14.4-25.7,27.1-38.4
						C145.3,75.9,158.1,66.9,171,61.7z"/>
					<path class="st0" d="M114.5,161.6c-5,0-8.9-1.5-11.8-4.3c-5.8-5.8-5.8-15.4-0.2-29.2c5.6-13.5,15.2-27.1,28.7-40.6
						c13.4-13.4,27-23,40.5-28.7c13.8-5.7,23.4-5.6,29.2,0.2l0,0c5.7,5.7,5.8,15.5,0.2,29.2c-5.6,13.5-15.2,27.1-28.7,40.6
						c-13.4,13.4-27,23.1-40.6,28.7C125.1,160.1,119.3,161.6,114.5,161.6z M189.1,55.6c-4.8,0-10.3,1.4-17,4
						c-13.4,5.6-26.9,15.1-40.2,28.4S109,115,103.5,128.3c-5.5,13.2-5.5,22.7-0.1,28.2c5.5,5.4,14.9,5.4,28.1-0.1
						c13.5-5.5,27-15.1,40.3-28.4c13.4-13.4,22.9-26.9,28.4-40.2c5.4-13.2,5.4-22.7,0-28.1C197.6,56.9,193.8,55.6,189.1,55.6z
						 M116.3,159c-4.8,0-8.4-1.4-11.2-4.2c-5.5-5.5-5.5-14.8-0.2-27.8c5.4-13,14.6-26,27.2-38.6c12.8-12.8,25.8-21.9,38.6-27.2l0,0
						c13-5.3,22.3-5.3,27.8,0.2c5.6,5.5,5.6,14.6,0.2,27.8c-5.3,12.9-14.5,25.9-27.2,38.6c-12.8,12.8-25.8,22-38.6,27.2
						C126.4,157.6,120.9,159,116.3,159z M171.2,62.1c-12.8,5.3-25.7,14.4-38.2,27c-12.7,12.6-21.7,25.4-27,38.2
						c-5.2,12.6-5.2,21.5,0,26.7c5.2,5.2,14.1,5.2,26.7,0c12.8-5.3,25.7-14.4,38.3-27c12.7-12.7,21.7-25.5,27-38.2
						c5.2-12.6,5.2-21.5,0-26.7C192.7,56.9,183.7,56.9,171.2,62.1L171.2,62.1z"/>
				</g>
			</g>
			<g>
				<g>
					<path class="st0" d="M198.8,156.9c5.6-5.7,5.7-15.2,0.1-28.7c-5.6-13.5-15.1-27-28.5-40.4c-13.5-13.5-27-23-40.4-28.5
						c-13.5-5.6-23.1-5.6-28.7,0.1c-5.7,5.6-5.7,15.1-0.1,28.6s15.1,27,28.6,40.4c13.5,13.5,26.9,23,40.4,28.6
						C183.6,162.6,193.2,162.5,198.8,156.9z M196.5,127.2c5.3,12.9,5.2,22-0.1,27.2c-5.3,5.3-14.5,5.4-27.2,0
						c-12.9-5.3-25.7-14.4-38.5-27.1c-12.9-12.8-21.9-25.7-27.1-38.4c-5.3-12.9-5.3-22,0-27.2c5.4-5.3,14.5-5.3,27.2,0
						s25.7,14.3,38.4,27.1C182.1,101.6,191.1,114.4,196.5,127.2z"/>
					<path class="st0" d="M187.3,161.6c-4.9,0-10.7-1.4-17.4-4.1c-13.5-5.5-27.1-15.2-40.6-28.7c-13.4-13.4-23-27.1-28.6-40.6
						c-5.6-13.6-5.6-23.5,0.2-29.2c5.7-5.8,15.5-5.8,29.2-0.2c13.5,5.6,27.1,15.2,40.6,28.7c13.4,13.4,23,27.1,28.6,40.6
						c5.6,13.6,5.5,23.4-0.2,29.2l0,0C196.2,160.1,192.3,161.6,187.3,161.6z M112.7,55.6c-4.6,0-8.4,1.4-11.1,4.1
						c-5.5,5.4-5.5,14.9,0,28.1c5.5,13.4,15.1,26.9,28.4,40.2c13.4,13.4,26.9,23,40.3,28.4c13.2,5.4,22.6,5.5,28.1,0.1
						c5.4-5.5,5.4-15,0-28.2c-5.5-13.4-15.1-26.9-28.4-40.2c-13.3-13.4-26.9-22.9-40.2-28.4C123.1,57,117.4,55.6,112.7,55.6z
						 M185.5,159c-4.6,0-10.1-1.4-16.6-4c-12.9-5.3-25.9-14.5-38.6-27.2c-12.8-12.7-22-25.7-27.2-38.6c-5.4-13-5.3-22.4,0.2-27.9
						c5.6-5.5,14.7-5.6,27.9-0.2c12.9,5.3,25.9,14.5,38.6,27.2c12.7,12.7,21.9,25.7,27.2,38.6l0,0c5.3,13,5.3,22.4-0.2,27.9
						C194,157.6,190.3,159,185.5,159z M114.5,58.3c-4.4,0-7.9,1.3-10.6,3.8c-5.2,5.2-5.2,14.1,0.1,26.7c5.3,12.8,14.4,25.7,27,38.2
						c12.7,12.7,25.5,21.7,38.3,27c12.6,5.2,21.5,5.3,26.6,0.1c5.2-5.2,5.2-14.1,0-26.7c-5.3-12.8-14.5-25.7-27-38.2
						c-12.6-12.7-25.4-21.9-38.2-27C124.4,59.5,119,58.3,114.5,58.3z"/>
				</g>
			</g>
			<g>
				<g>
					<path class="st0" d="M219,108.1c0-7.9-6.8-14.7-20.2-20.3c-13.5-5.7-29.8-8.4-48.8-8.4c-19.1,0-35.4,2.7-48.8,8.4
						C87.8,93.4,81,100.3,81,108.1c0,7.9,6.8,14.7,20.3,20.3c13.5,5.6,29.7,8.4,48.8,8.4c19,0,35.3-2.9,48.8-8.4
						C212.3,122.9,219,116.1,219,108.1z M196.4,88.8c12.8,5.4,19.2,11.8,19.2,19.3c0,7.5-6.4,14-19.2,19.3s-28.3,8-46.3,8
						c-18.2,0-33.6-2.7-46.3-8c-12.9-5.3-19.2-11.8-19.2-19.3c0-7.6,6.3-14,19.2-19.3c12.8-5.3,28.2-7.9,46.3-7.9
						C168.1,80.9,183.6,83.5,196.4,88.8z"/>
					<path class="st0" d="M150.1,137.4c-19,0-35.5-2.9-49-8.4c-13.6-5.7-20.6-12.7-20.6-20.8s6.9-15.1,20.6-20.8
						c13.4-5.6,29.9-8.4,49-8.4s35.6,2.9,49,8.4c13.6,5.7,20.5,12.7,20.5,20.8s-6.9,15.1-20.5,20.8
						C185.5,134.6,169.1,137.4,150.1,137.4z M150.1,79.9c-19,0-35.4,2.9-48.6,8.4c-13.2,5.5-20,12.1-20,19.8s6.7,14.4,20,19.8
						c13.4,5.6,29.8,8.4,48.6,8.4s35.2-2.9,48.6-8.4c13.2-5.5,19.8-12.1,19.8-19.8s-6.7-14.4-19.8-19.8
						C185.3,82.8,168.9,79.9,150.1,79.9z M150.1,136c-18.1,0-33.7-2.7-46.6-8.1c-13-5.4-19.5-12-19.5-19.7c0-7.8,6.4-14.4,19.5-19.8
						c12.9-5.3,28.5-8,46.6-8s33.7,2.6,46.6,8l0,0c13,5.4,19.5,12.1,19.5,19.8s-6.5,14.4-19.5,19.7C183.7,133.3,168,136,150.1,136z
						 M150.1,81.4c-17.8,0-33.5,2.6-46.1,7.9C91.4,94.6,85,100.9,85,108.2c0,7.3,6.3,13.6,18.9,18.8c12.8,5.3,28.3,8,46.1,8
						s33.4-2.7,46.1-8c12.6-5.2,18.9-11.5,18.9-18.8c0-7.3-6.3-13.6-18.9-18.9l0,0C183.4,84,167.9,81.4,150.1,81.4z"/>
				</g>
			</g>
			<path class="st0" d="M151.7,95c-3.6,0-6.7,1.3-9.2,3.8c-2.5,2.5-3.8,5.6-3.8,9.3c0,3.6,1.3,6.7,3.8,9.3c2.5,2.5,5.6,3.8,9.2,3.8
				c3.7,0,6.8-1.3,9.3-3.8s3.8-5.7,3.8-9.3c0-3.7-1.3-6.8-3.8-9.3S155.4,95,151.7,95z"/>
		</g>
	</g>
</g>
</svg>
